<?xml version="1.0" encoding="UTF-8"?>
<svg id="Layer_1" data-name="Layer 1" xmlns="http://www.w3.org/2000/svg" viewBox="84.052 178.286 443.896 437.362" preserveAspectRatio="xMidYMid meet">
  <defs>
    <style>
      .cls-1 {
        fill: #fff;
      }
    </style>
  </defs>
  <path class="cls-1" d="M312.9939,395.6818c-3.6239-.1664-7.0298-.0968-11.6036.17l-.0036-121.9612-43.1352-.089v-10.9355l43.1172.0075.0478-40.4431,11.4999-.0453.1099,40.4649,42.8454.0427.0604,10.958-42.9514.006.0131,121.825Z"/>
  <path class="cls-1" d="M315.678,191.3932c-40.8022-2.4304-79.9902,12.6372-107.2363,41.8945-46.9461,50.4115-43.4969,124.995,5.18,173.2771,37.4081-9.1181,55.1216-9.5884,87.6313-10.6443-18.8276,21.8696-25.8168,34.5199-45.1958,59.1116-20.6473-7.6307-43.6576-22.1925-56.3042-35.2053-49.5404-50.9748-52.1118-129.8409-6.1259-183.6958,26.8639-31.4608,65.9561-50.3677,108.5014-51.763,61.46-2.0156,118.2729,33.2038,141.3388,89.0405,13.8503,34.6993,13.3063,73.4723-2.2907,107.3243-26.3087,57.1008-87.8152,90.8356-152.1627,82.9568,7.667-27.3281,15.3951-42.5385,23.8427-67.9409,25.0144.3835,54.0848,3.1405,87.6109,10.7717,17.5684-17.4042,30.055-38.7627,35.5514-62.617,17.5474-76.1552-40.4759-147.7531-120.3408-152.5102Z"/>
  <g>
    <g>
      <g>
        <path class="cls-1" d="M102.6387,559.3681v-39.7812h-12.5869v-7.6377h33.9131v7.6377h-12.3916v39.7812h-8.9346Z"/>
        <path class="cls-1" d="M130.9424,559.3681v-47.4189h8.9346v20.6855h20.6738v-20.6855h8.9346v47.4189h-8.9346v-19.0947h-20.6738v19.0947h-8.9346Z"/>
        <path class="cls-1" d="M180.377,559.3681v-47.4189h32.3477v7.6377h-23.4131v12.1572h22.1084v7.7012h-22.1084v12.2852h23.4131v7.6377h-32.3477Z"/>
      </g>
      <g>
        <path class="cls-1" d="M236.8857,558.6543v-47.4189h8.543l18.1963,24.123h-4.0439l17.8047-24.123h8.4785v47.4189h-8.9355v-37.5537l3.457.8271-18.457,23.9961h-1.043l-18-23.9961,2.9346-.8271v37.5537h-8.9346Z"/>
        <path class="cls-1" d="M296.7549,558.6543v-47.4189h8.9346v47.4189h-8.9346Z"/>
        <path class="cls-1" d="M333.9277,559.4179c-3.0439,0-5.8809-.5518-8.5107-1.6543-2.6318-1.1035-4.8916-2.6416-6.7832-4.6152-1.8906-1.9727-3.293-4.2744-4.2061-6.9062l7.4346-3.1182c1.1738,2.7158,2.8691,4.8477,5.0869,6.3965,2.2178,1.5498,4.7168,2.3232,7.5,2.3232,1.5654,0,2.9238-.2441,4.0762-.7324,1.1514-.4873,2.043-1.1553,2.6738-2.0049.6299-.8477.9453-1.8662.9453-3.0547,0-1.4004-.4238-2.5459-1.2715-3.4375-.8477-.8906-2.1191-1.6123-3.8154-2.1641l-9.3262-2.9277c-3.7822-1.1455-6.6416-2.8535-8.5752-5.124-1.9355-2.2695-2.9023-4.9746-2.9023-8.1152,0-2.7148.6943-5.1133,2.0869-7.1924,1.3906-2.0791,3.3145-3.7021,5.7715-4.8691,2.4561-1.167,5.2715-1.751,8.4453-1.751,2.9131,0,5.5869.5,8.0225,1.4961,2.4346.998,4.5322,2.377,6.293,4.1377s3.0752,3.8301,3.9463,6.2061l-7.3701,3.1816c-.9131-2.333-2.3379-4.1582-4.2715-5.4736-1.9355-1.3145-4.1416-1.9727-6.6201-1.9727-1.4785,0-2.7822.2441-3.9131.7314-1.1309.4883-2.0107,1.1777-2.6406,2.0684-.6309.8916-.9463,1.9102-.9463,3.0557,0,1.3154.4346,2.4727,1.3047,3.4688.8691.998,2.1953,1.7725,3.9785,2.3232l8.9346,2.7373c3.8691,1.2314,6.7715,2.9277,8.707,5.0918,1.9336,2.1641,2.9014,4.8369,2.9014,8.0195,0,2.7168-.7168,5.1143-2.1514,7.1924-1.4355,2.0801-3.4141,3.7139-5.9355,4.9014s-5.4775,1.7822-8.8691,1.7822Z"/>
        <path class="cls-1" d="M377.7539,559.4179c-3.0439,0-5.8809-.5518-8.5107-1.6543-2.6318-1.1035-4.8916-2.6416-6.7832-4.6152-1.8906-1.9727-3.293-4.2744-4.2061-6.9062l7.4346-3.1182c1.1738,2.7158,2.8691,4.8477,5.0869,6.3965,2.2178,1.5498,4.7168,2.3232,7.5,2.3232,1.5654,0,2.9238-.2441,4.0762-.7324,1.1514-.4873,2.043-1.1553,2.6738-2.0049.6299-.8477.9453-1.8662.9453-3.0547,0-1.4004-.4238-2.5459-1.2715-3.4375-.8477-.8906-2.1191-1.6123-3.8154-2.1641l-9.3262-2.9277c-3.7822-1.1455-6.6416-2.8535-8.5752-5.124-1.9355-2.2695-2.9023-4.9746-2.9023-8.1152,0-2.7148.6943-5.1133,2.0869-7.1924,1.3906-2.0791,3.3145-3.7021,5.7715-4.8691,2.4561-1.167,5.2715-1.751,8.4453-1.751,2.9131,0,5.5869.5,8.0225,1.4961,2.4346.998,4.5322,2.377,6.293,4.1377s3.0752,3.8301,3.9463,6.2061l-7.3701,3.1816c-.9131-2.333-2.3379-4.1582-4.2715-5.4736-1.9355-1.3145-4.1416-1.9727-6.6201-1.9727-1.4785,0-2.7822.2441-3.9131.7314-1.1309.4883-2.0107,1.1777-2.6406,2.0684-.6309.8916-.9463,1.9102-.9463,3.0557,0,1.3154.4346,2.4727,1.3047,3.4688.8691.998,2.1953,1.7725,3.9785,2.3232l8.9346,2.7373c3.8691,1.2314,6.7715,2.9277,8.707,5.0918,1.9336,2.1641,2.9014,4.8369,2.9014,8.0195,0,2.7168-.7168,5.1143-2.1514,7.1924-1.4355,2.0801-3.4141,3.7139-5.9355,4.9014s-5.4775,1.7822-8.8691,1.7822Z"/>
        <path class="cls-1" d="M404.2314,558.6543v-47.4189h8.9346v47.4189h-8.9346Z"/>
        <path class="cls-1" d="M448.0566,559.4179c-3.6094,0-6.9463-.6152-10.0107-1.8457-3.0654-1.2305-5.751-2.9492-8.0547-5.1553-2.3057-2.2061-4.1084-4.8057-5.4131-7.7979-1.3047-2.9912-1.957-6.2266-1.957-9.7061s.6416-6.7158,1.9238-9.707,3.0762-5.5791,5.3809-7.7656c2.3037-2.1846,4.999-3.8926,8.0869-5.123,3.0869-1.2305,6.4346-1.8467,10.0439-1.8467s6.9551.6162,10.043,1.8467c3.0869,1.2305,5.7822,2.9492,8.0869,5.1553,2.3047,2.207,4.0977,4.7959,5.3809,7.7656,1.2822,2.9707,1.9238,6.1953,1.9238,9.6748s-.6523,6.7148-1.9561,9.7061c-1.3047,2.9922-3.1094,5.5918-5.4131,7.7979-2.3057,2.2061-4.9893,3.9248-8.0547,5.1553s-6.4023,1.8457-10.0107,1.8457ZM448.0566,551.5253c2.3477,0,4.5215-.4141,6.5215-1.2412,1.999-.8271,3.75-1.9834,5.25-3.4688s2.6631-3.2461,3.4893-5.2832c.8252-2.0361,1.2393-4.2422,1.2393-6.6191s-.4141-4.5723-1.2393-6.5879c-.8262-2.0146-1.9893-3.7764-3.4893-5.2832-1.5-1.5059-3.251-2.6621-5.25-3.4688-2-.8057-4.1738-1.21-6.5215-1.21s-4.5225.4043-6.5225,1.21c-2,.8066-3.75,1.9629-5.25,3.4688-1.5,1.5068-2.6631,3.2686-3.4893,5.2832-.8262,2.0156-1.2383,4.2119-1.2383,6.5879s.4121,4.583,1.2383,6.6191c.8262,2.0371,1.9893,3.7979,3.4893,5.2832s3.25,2.6416,5.25,3.4688,4.1748,1.2412,6.5225,1.2412Z"/>
        <path class="cls-1" d="M482.9482,558.6543v-47.4189h6.9775l26.6748,35.1348-3.5225.7002v-35.835h8.8701v47.4189h-7.0439l-26.2822-35.3896,3.2607-.7002v36.0898h-8.9346Z"/>
      </g>
    </g>
    <g>
      <path class="cls-1" d="M220.7861,609.6474c-2.25,0-4.3281-.3955-6.2354-1.1875-1.9082-.792-3.5596-1.9102-4.9541-3.3555-1.3955-1.4453-2.4854-3.1406-3.2676-5.0859-.7832-1.9443-1.1748-4.0703-1.1748-6.377,0-2.335.3916-4.4746,1.1748-6.4199.7822-1.9443,1.8721-3.6396,3.2676-5.085,1.3945-1.4443,3.0391-2.5635,4.9326-3.3555s3.9785-1.1885,6.2568-1.1885c2.1924,0,4.1641.376,5.915,1.126,1.752.75,3.2314,1.7236,4.4424,2.918,1.21,1.1953,2.0713,2.4736,2.584,3.835l-3.8438,1.75c-.7412-1.75-1.8945-3.1602-3.46-4.2305-1.5664-1.0693-3.4453-1.6045-5.6377-1.6045-2.2207,0-4.1924.5137-5.915,1.542-1.7236,1.0283-3.0684,2.459-4.0361,4.293-.9688,1.834-1.4521,3.9746-1.4521,6.4199,0,2.417.4834,4.543,1.4521,6.377.9678,1.834,2.3125,3.2656,4.0361,4.2939,1.7227,1.0283,3.6943,1.542,5.915,1.542,2.1924,0,4.0713-.5352,5.6377-1.6045,1.5654-1.0693,2.7188-2.4658,3.46-4.1895l3.8438,1.709c-.5127,1.3623-1.374,2.6406-2.584,3.835-1.2109,1.1953-2.6904,2.167-4.4424,2.918-1.751.75-3.7227,1.125-5.915,1.125Z"/>
      <path class="cls-1" d="M243.6357,609.1474v-31.0537h4.2285v13.8389h15.9307v-13.8389h4.2285v31.0537h-4.2285v-13.4639h-15.9307v13.4639h-4.2285Z"/>
      <path class="cls-1" d="M290.8721,609.6474c-2.3057,0-4.3496-.4727-6.1289-1.417s-3.1602-2.2441-4.1426-3.8975-1.4736-3.5361-1.4736-5.6484v-20.5908h4.2285v20.5078c0,1.417.3203,2.6748.9609,3.7725s1.5234,1.9521,2.6484,2.5635c1.124.6113,2.4268.917,3.9072.917s2.7832-.3057,3.9082-.917,2.0078-1.4658,2.6484-2.5635.9609-2.3555.9609-3.7725v-20.5078h4.2285v20.5908c0,2.1123-.4912,3.9951-1.4736,5.6484s-2.3564,2.9531-4.1221,3.8975-3.8154,1.417-6.1504,1.417Z"/>
      <path class="cls-1" d="M313.7217,609.1474v-31.0537h11.2754c2.1074,0,3.958.3887,5.5527,1.167,1.5938.7783,2.8398,1.8896,3.7373,3.334.8965,1.4453,1.3447,3.1543,1.3447,5.1279,0,2.167-.5693,4.0225-1.708,5.5645-1.1396,1.542-2.6768,2.6465-4.6123,3.3135l7.3887,12.5469h-4.8691l-7.8164-13.4639,2.8193,1.584h-8.8838v11.8799h-4.2285ZM317.9502,593.5166h7.1748c1.2529,0,2.3496-.2363,3.2891-.709s1.6729-1.1533,2.1992-2.043c.5273-.8887.791-1.917.791-3.084,0-1.1943-.2637-2.2305-.791-3.1055-.5264-.875-1.2598-1.5488-2.1992-2.0215s-2.0361-.709-3.2891-.709h-7.1748v11.6719Z"/>
      <path class="cls-1" d="M360.3604,609.6474c-2.25,0-4.3281-.3955-6.2354-1.1875-1.9082-.792-3.5596-1.9102-4.9541-3.3555-1.3955-1.4453-2.4854-3.1406-3.2676-5.0859-.7832-1.9443-1.1748-4.0703-1.1748-6.377,0-2.335.3916-4.4746,1.1748-6.4199.7822-1.9443,1.8721-3.6396,3.2676-5.085,1.3945-1.4443,3.0391-2.5635,4.9326-3.3555s3.9785-1.1885,6.2568-1.1885c2.1924,0,4.1641.376,5.915,1.126,1.752.75,3.2314,1.7236,4.4424,2.918,1.21,1.1953,2.0713,2.4736,2.584,3.835l-3.8438,1.75c-.7412-1.75-1.8945-3.1602-3.46-4.2305-1.5664-1.0693-3.4453-1.6045-5.6377-1.6045-2.2207,0-4.1924.5137-5.915,1.542-1.7236,1.0283-3.0684,2.459-4.0361,4.293-.9688,1.834-1.4521,3.9746-1.4521,6.4199,0,2.417.4834,4.543,1.4521,6.377.9678,1.834,2.3125,3.2656,4.0361,4.2939,1.7227,1.0283,3.6943,1.542,5.915,1.542,2.1924,0,4.0713-.5352,5.6377-1.6045,1.5654-1.0693,2.7188-2.4658,3.46-4.1895l3.8438,1.709c-.5127,1.3623-1.374,2.6406-2.584,3.835-1.2109,1.1953-2.6904,2.167-4.4424,2.918-1.751.75-3.7227,1.125-5.915,1.125Z"/>
      <path class="cls-1" d="M383.21,609.1474v-31.0537h4.2285v13.8389h15.9307v-13.8389h4.2285v31.0537h-4.2285v-13.4639h-15.9307v13.4639h-4.2285Z"/>
    </g>
  </g>
  <path class="cls-1" d="M213.6217,406.5649s20.2525,19.3362,53.7779,33.6196l33.9995-44.3324s-52.0714-.2102-87.7774,10.7128Z"/>
  <path class="cls-1" d="M312.8832,395.6877s-14.8368,38.9408-18.1547,49.5253c0,0,65.2922,0,105.7389-38.6926,0,0-38.0886-10.6687-87.5842-10.8327Z"/>
</svg>